<?xml version="1.0" encoding="UTF-8"?>
<svg xmlns="http://www.w3.org/2000/svg" xmlns:xlink="http://www.w3.org/1999/xlink" width="25px" height="25px" viewBox="0 0 25 25" version="1.1">
<g id="surface1">
<path style=" stroke:none;fill-rule:nonzero;fill:rgb(0%,0%,0%);fill-opacity:1;" d="M 7.5 20 C 6.125 20 5 21.125 5 22.5 C 5 23.875 6.125 25 7.5 25 C 8.875 25 10 23.875 10 22.5 C 10 21.125 8.875 20 7.5 20 Z M 0 0 L 0 2.5 L 2.5 2.5 L 7 12 L 5.25 15 C 5.125 15.375 5 15.875 5 16.25 C 5 17.625 6.125 18.75 7.5 18.75 L 22.5 18.75 L 22.5 16.25 L 8 16.25 C 7.875 16.25 7.75 16.125 7.75 16 L 7.75 15.875 L 8.875 13.75 L 18.125 13.75 C 19.125 13.75 19.875 13.25 20.25 12.5 L 24.75 4.375 C 25 4.125 25 4 25 3.75 C 25 3 24.5 2.5 23.75 2.5 L 5.25 2.5 L 4.125 0 Z M 20 20 C 18.625 20 17.5 21.125 17.5 22.5 C 17.5 23.875 18.625 25 20 25 C 21.375 25 22.5 23.875 22.5 22.5 C 22.5 21.125 21.375 20 20 20 Z M 20 20 "/>
</g>
</svg>
