<?xml version="1.0" encoding="UTF-8"?>
<svg xmlns="http://www.w3.org/2000/svg" xmlns:xlink="http://www.w3.org/1999/xlink" width="16px" height="16px" viewBox="0 0 16 16" version="1.1">
<g id="surface1">
<path style=" stroke:none;fill-rule:nonzero;fill:rgb(93.333333%,21.960784%,25.098039%);fill-opacity:1;" d="M 12.863281 5.820312 L 12.125 5.820312 L 12.125 3.105469 C 12.125 1.800781 11.0625 0.742188 9.757812 0.742188 C 8.453125 0.742188 7.394531 1.800781 7.394531 3.105469 L 7.394531 5.820312 L 6.652344 5.820312 L 6.652344 3.105469 C 6.652344 1.394531 8.046875 0 9.757812 0 C 11.46875 0 12.863281 1.394531 12.863281 3.105469 Z M 12.863281 5.820312 "/>
<path style=" stroke:none;fill-rule:nonzero;fill:rgb(100%,54.901961%,0%);fill-opacity:1;" d="M 9.347656 5.820312 L 8.605469 5.820312 L 8.605469 3.105469 C 8.605469 1.800781 7.546875 0.742188 6.242188 0.742188 C 4.9375 0.742188 3.875 1.800781 3.875 3.105469 L 3.875 5.820312 L 3.136719 5.820312 L 3.136719 3.105469 C 3.136719 1.394531 4.527344 0 6.242188 0 C 7.953125 0 9.347656 1.394531 9.347656 3.105469 Z M 9.347656 5.820312 "/>
<path style=" stroke:none;fill-rule:nonzero;fill:rgb(100%,61.960784%,14.117647%);fill-opacity:1;" d="M 15.035156 4.667969 L 13.273438 4.667969 L 11.792969 10.335938 L 13.273438 16 L 15.035156 16 Z M 15.035156 4.667969 "/>
<path style=" stroke:none;fill-rule:nonzero;fill:rgb(100%,54.901961%,0%);fill-opacity:1;" d="M 11.515625 4.667969 L 10.035156 10.335938 L 11.515625 16 L 13.273438 16 L 13.273438 4.667969 Z M 11.515625 4.667969 "/>
<path style=" stroke:none;fill-rule:nonzero;fill:rgb(100%,69.411765%,30.196078%);fill-opacity:1;" d="M 0.964844 4.667969 L 11.515625 4.667969 L 11.515625 16 L 0.964844 16 Z M 0.964844 4.667969 "/>
</g>
</svg>
