<?xml version="1.0" encoding="UTF-8"?>
<svg xmlns="http://www.w3.org/2000/svg" xmlns:xlink="http://www.w3.org/1999/xlink" width="166px" height="166px" viewBox="0 0 166 166" version="1.1">
<g id="surface1">
<path style=" stroke:none;fill-rule:nonzero;fill:rgb(94.117647%,32.156863%,15.686275%);fill-opacity:1;" d="M 77.003906 120.304688 C 70.320312 120.304688 64.933594 125.6875 64.933594 132.375 C 64.933594 139.023438 70.320312 144.417969 77.003906 144.417969 C 83.65625 144.417969 89.074219 139.023438 89.074219 132.375 C 89.074219 125.6875 83.65625 120.304688 77.003906 120.304688 Z M 77.003906 120.304688 "/>
<path style=" stroke:none;fill-rule:nonzero;fill:rgb(94.117647%,32.156863%,15.686275%);fill-opacity:1;" d="M 126.195312 120.304688 C 119.523438 120.304688 114.125 125.6875 114.125 132.375 C 114.125 139.023438 119.523438 144.417969 126.195312 144.417969 C 132.847656 144.417969 138.257812 139.023438 138.257812 132.375 C 138.257812 125.6875 132.847656 120.304688 126.195312 120.304688 Z M 126.195312 120.304688 "/>
<path style=" stroke:none;fill-rule:nonzero;fill:rgb(94.117647%,32.156863%,15.686275%);fill-opacity:1;" d="M 136.046875 66.613281 L 67.132812 66.613281 L 69.882812 75.667969 L 133.316406 75.667969 Z M 136.046875 66.613281 "/>
<path style=" stroke:none;fill-rule:nonzero;fill:rgb(94.117647%,32.156863%,15.686275%);fill-opacity:1;" d="M 127.839844 93.75 L 130.574219 84.710938 L 72.632812 84.710938 L 75.378906 93.75 Z M 127.839844 93.75 "/>
<path style=" stroke:none;fill-rule:nonzero;fill:rgb(94.117647%,32.156863%,15.686275%);fill-opacity:1;" d="M 60.382812 44.238281 L 64.375 57.582031 L 148.015625 57.582031 L 134.378906 102.742188 L 68.855469 102.742188 L 44.269531 21.582031 L 0 21.582031 L 0 34.820312 L 34.34375 34.820312 L 58.984375 116.078125 L 144.207031 116.078125 L 166 44.238281 Z M 60.382812 44.238281 "/>
</g>
</svg>
