<?xml version="1.0" encoding="UTF-8"?>
<svg xmlns="http://www.w3.org/2000/svg" xmlns:xlink="http://www.w3.org/1999/xlink" width="16px" height="16px" viewBox="0 0 16 16" version="1.1">
<g id="surface1">
<path style=" stroke:none;fill-rule:nonzero;fill:rgb(6.27451%,65.882353%,12.54902%);fill-opacity:1;" d="M 8 0.5 C 6.011719 0.5 4.101562 1.289062 2.695312 2.695312 C 1.289062 4.101562 0.5 6.011719 0.5 8 C 0.914062 17.949219 15.089844 17.949219 15.5 8 C 15.5 6.011719 14.710938 4.101562 13.304688 2.695312 C 11.898438 1.289062 9.988281 0.5 8 0.5 Z M 8 7.5 C 10.9375 7.574219 11.335938 11.671875 8.5 12.332031 L 8.5 13 C 8.5 13.132812 8.449219 13.261719 8.355469 13.355469 C 8.261719 13.449219 8.132812 13.5 8 13.5 C 7.867188 13.5 7.738281 13.449219 7.644531 13.355469 C 7.550781 13.261719 7.5 13.132812 7.5 13 L 7.5 12.386719 L 6.058594 12.386719 C 5.925781 12.386719 5.796875 12.332031 5.703125 12.238281 C 5.609375 12.144531 5.558594 12.019531 5.558594 11.886719 C 5.558594 11.753906 5.609375 11.625 5.703125 11.53125 C 5.796875 11.4375 5.925781 11.386719 6.058594 11.386719 L 8 11.386719 C 9.90625 11.324219 9.90625 8.558594 8 8.5 C 5.0625 8.425781 4.664062 4.328125 7.5 3.667969 L 7.5 3 C 7.5 2.867188 7.550781 2.738281 7.644531 2.644531 C 7.738281 2.550781 7.867188 2.5 8 2.5 C 8.132812 2.5 8.261719 2.550781 8.355469 2.644531 C 8.449219 2.738281 8.5 2.867188 8.5 3 L 8.5 3.613281 L 9.941406 3.613281 C 10.074219 3.613281 10.203125 3.667969 10.296875 3.761719 C 10.390625 3.855469 10.441406 3.980469 10.441406 4.113281 C 10.441406 4.246094 10.390625 4.375 10.296875 4.46875 C 10.203125 4.5625 10.074219 4.613281 9.941406 4.613281 L 8 4.613281 C 6.09375 4.675781 6.09375 7.441406 8 7.5 Z M 8 7.5 "/>
</g>
</svg>
