<?xml version="1.0" encoding="UTF-8"?>
<svg xmlns="http://www.w3.org/2000/svg" xmlns:xlink="http://www.w3.org/1999/xlink" width="16px" height="16px" viewBox="0 0 16 16" version="1.1">
<g id="surface1">
<path style=" stroke:none;fill-rule:nonzero;fill:rgb(92.941176%,78.823529%,31.764706%);fill-opacity:1;" d="M 16 8.519531 C 16 12.527344 12.753906 15.773438 8.746094 15.773438 C 4.742188 15.773438 1.496094 12.527344 1.496094 8.519531 C 1.496094 4.515625 4.742188 1.269531 8.746094 1.269531 C 12.753906 1.269531 16 4.515625 16 8.519531 Z M 16 8.519531 "/>
<path style=" stroke:none;fill-rule:nonzero;fill:rgb(32.54902%,92.54902%,95.686275%);fill-opacity:1;" d="M 6.359375 3.746094 C 6.476562 4.75 5.988281 5.203125 4.976562 5.203125 C 3.96875 5.203125 3.53125 4.746094 3.671875 3.746094 C 3.820312 2.683594 4.976562 1.472656 4.976562 1.472656 C 4.976562 1.472656 6.242188 2.738281 6.359375 3.746094 Z M 6.359375 3.746094 "/>
<path style=" stroke:none;fill-rule:nonzero;fill:rgb(0%,0%,0%);fill-opacity:1;" d="M 10.945312 12.527344 C 10.746094 12.527344 10.582031 12.363281 10.582031 12.164062 C 10.582031 11.027344 9.652344 10.105469 8.507812 10.105469 L 7.289062 10.105469 C 6.125 10.105469 5.214844 11.003906 5.214844 12.148438 C 5.214844 12.347656 5.050781 12.507812 4.851562 12.507812 C 4.652344 12.507812 4.488281 12.347656 4.488281 12.148438 C 4.488281 10.621094 5.746094 9.382812 7.289062 9.382812 L 8.507812 9.382812 C 10.050781 9.382812 11.304688 10.628906 11.304688 12.164062 C 11.304688 12.363281 11.144531 12.527344 10.945312 12.527344 Z M 10.945312 12.527344 "/>
<path style=" stroke:none;fill-rule:nonzero;fill:rgb(0%,0%,0%);fill-opacity:1;" d="M 3.84375 4.886719 C 3.210938 4.886719 2.761719 4.722656 2.476562 4.394531 C 2.195312 4.074219 2.097656 3.609375 2.179688 3.019531 C 2.34375 1.851562 3.53125 0.597656 3.582031 0.542969 C 3.652344 0.472656 3.742188 0.433594 3.839844 0.433594 C 3.933594 0.429688 4.03125 0.46875 4.101562 0.539062 C 4.238281 0.675781 5.457031 1.925781 5.585938 3.027344 C 5.652344 3.605469 5.542969 4.058594 5.257812 4.378906 C 4.960938 4.714844 4.484375 4.886719 3.84375 4.886719 Z M 3.851562 1.335938 C 3.523438 1.734375 2.988281 2.472656 2.894531 3.117188 C 2.84375 3.496094 2.886719 3.761719 3.019531 3.917969 C 3.160156 4.078125 3.4375 4.160156 3.84375 4.160156 C 4.269531 4.160156 4.5625 4.074219 4.71875 3.898438 C 4.859375 3.742188 4.910156 3.472656 4.867188 3.109375 C 4.800781 2.539062 4.242188 1.785156 3.851562 1.335938 Z M 3.851562 1.335938 "/>
<path style=" stroke:none;fill-rule:nonzero;fill:rgb(0%,0%,0%);fill-opacity:1;" d="M 7.613281 15.453125 C 3.414062 15.453125 0 12.039062 0 7.839844 C 0 5.75 0.828125 3.804688 2.335938 2.355469 C 2.480469 2.214844 2.707031 2.21875 2.847656 2.363281 C 2.984375 2.507812 2.980469 2.738281 2.835938 2.875 C 1.472656 4.1875 0.722656 5.949219 0.722656 7.839844 C 0.722656 11.640625 3.8125 14.730469 7.613281 14.730469 C 11.414062 14.730469 14.503906 11.640625 14.503906 7.839844 C 14.503906 4.042969 11.414062 0.949219 7.613281 0.949219 C 6.574219 0.949219 5.578125 1.175781 4.648438 1.621094 C 4.46875 1.707031 4.25 1.628906 4.164062 1.449219 C 4.078125 1.269531 4.15625 1.054688 4.335938 0.96875 C 5.363281 0.476562 6.464844 0.226562 7.613281 0.226562 C 11.8125 0.226562 15.226562 3.644531 15.226562 7.839844 C 15.226562 12.039062 11.8125 15.453125 7.613281 15.453125 Z M 7.613281 15.453125 "/>
<path style=" stroke:none;fill-rule:nonzero;fill:rgb(0%,0%,0%);fill-opacity:1;" d="M 10.699219 7.78125 C 9.832031 7.78125 9.097656 7.03125 9.097656 6.144531 C 9.097656 5.945312 9.261719 5.785156 9.460938 5.785156 C 9.660156 5.785156 9.824219 5.945312 9.824219 6.144531 C 9.824219 6.640625 10.222656 7.058594 10.699219 7.058594 C 10.898438 7.058594 11.058594 7.21875 11.058594 7.417969 C 11.058594 7.617188 10.898438 7.78125 10.699219 7.78125 Z M 10.699219 7.78125 "/>
<path style=" stroke:none;fill-rule:nonzero;fill:rgb(0%,0%,0%);fill-opacity:1;" d="M 4.449219 7.761719 C 4.25 7.761719 4.089844 7.601562 4.089844 7.398438 C 4.089844 7.199219 4.25 7.039062 4.449219 7.039062 C 4.945312 7.039062 5.363281 6.636719 5.363281 6.164062 C 5.363281 5.964844 5.523438 5.800781 5.726562 5.800781 C 5.925781 5.800781 6.085938 5.964844 6.085938 6.164062 C 6.085938 7.03125 5.335938 7.761719 4.449219 7.761719 Z M 4.449219 7.761719 "/>
</g>
</svg>
