<?xml version="1.0" encoding="UTF-8"?>
<svg xmlns="http://www.w3.org/2000/svg" xmlns:xlink="http://www.w3.org/1999/xlink" width="16px" height="16px" viewBox="0 0 16 16" version="1.1">
<g id="surface1">
<path style=" stroke:none;fill-rule:nonzero;fill:rgb(0%,0%,0%);fill-opacity:1;" d="M 6.410156 10.546875 C 7.25 10.546875 8.074219 10.285156 8.765625 9.800781 L 9.214844 10.25 C 9.140625 10.472656 9.195312 10.71875 9.363281 10.886719 L 11.898438 13.425781 C 12.144531 13.664062 12.535156 13.664062 12.777344 13.425781 L 13.421875 12.777344 C 13.664062 12.535156 13.664062 12.144531 13.421875 11.898438 L 10.882812 9.359375 C 10.71875 9.195312 10.472656 9.136719 10.25 9.214844 L 9.800781 8.765625 C 10.886719 7.199219 10.761719 5.09375 9.5 3.667969 C 8.238281 2.242188 6.164062 1.859375 4.480469 2.746094 C 2.792969 3.628906 1.925781 5.550781 2.386719 7.402344 C 2.84375 9.25 4.503906 10.546875 6.40625 10.546875 Z M 13.070312 12.253906 C 13.09375 12.277344 13.109375 12.308594 13.109375 12.339844 C 13.109375 12.371094 13.09375 12.402344 13.070312 12.425781 L 12.425781 13.070312 C 12.402344 13.09375 12.371094 13.109375 12.339844 13.109375 C 12.304688 13.109375 12.273438 13.09375 12.253906 13.070312 L 9.714844 10.53125 C 9.691406 10.507812 9.675781 10.476562 9.675781 10.445312 C 9.675781 10.414062 9.691406 10.382812 9.714844 10.359375 L 10.359375 9.714844 C 10.40625 9.664062 10.484375 9.664062 10.53125 9.714844 Z M 9.515625 9.851562 L 9.164062 9.496094 C 9.222656 9.441406 9.277344 9.390625 9.332031 9.335938 C 9.386719 9.28125 9.441406 9.222656 9.492188 9.164062 L 9.847656 9.519531 Z M 3.828125 3.828125 C 5.1875 2.464844 7.371094 2.398438 8.8125 3.671875 C 10.257812 4.945312 10.460938 7.121094 9.28125 8.640625 C 9.1875 8.761719 9.085938 8.875 8.980469 8.980469 C 7.558594 10.402344 5.25 10.40625 3.828125 8.980469 C 2.402344 7.558594 2.402344 5.25 3.828125 3.828125 Z M 3.828125 3.828125 "/>
</g>
</svg>
