<?xml version="1.0" encoding="UTF-8"?>
<svg xmlns="http://www.w3.org/2000/svg" xmlns:xlink="http://www.w3.org/1999/xlink" width="16px" height="16px" viewBox="0 0 16 16" version="1.1">
<g id="surface1">

<path style=" stroke:none;fill-rule:nonzero;fill:rgb(0%,0%,0%);fill-opacity:1;" d="M 3.402344 9.617188 C 4.191406 9.617188 4.863281 10.195312 4.980469 10.976562 L 11.019531 10.976562 C 11.136719 10.195312 11.808594 9.617188 12.597656 9.617188 C 13.386719 9.617188 14.058594 10.195312 14.175781 10.976562 L 14.960938 10.976562 L 14.960938 3.667969 L 5.769531 3.667969 C 4.515625 3.664062 3.3125 4.164062 2.421875 5.050781 C 1.535156 5.9375 1.039062 7.144531 1.039062 8.398438 L 1.039062 10.976562 L 1.824219 10.976562 C 1.941406 10.195312 2.613281 9.617188 3.402344 9.617188 Z M 6.300781 4.769531 C 6.300781 4.636719 6.40625 4.527344 6.539062 4.527344 L 13.527344 4.527344 C 13.660156 4.527344 13.765625 4.636719 13.765625 4.769531 L 13.765625 7.730469 C 13.765625 7.863281 13.660156 7.96875 13.527344 7.96875 L 6.539062 7.96875 C 6.40625 7.96875 6.300781 7.863281 6.300781 7.730469 Z M 2.234375 5.75 C 2.234375 5.644531 2.300781 5.554688 2.398438 5.519531 L 5.359375 4.539062 C 5.433594 4.515625 5.511719 4.527344 5.574219 4.574219 C 5.636719 4.617188 5.675781 4.691406 5.675781 4.769531 L 5.675781 7.730469 C 5.675781 7.863281 5.566406 7.96875 5.433594 7.96875 L 2.472656 7.96875 C 2.339844 7.96875 2.234375 7.863281 2.234375 7.730469 Z M 2.234375 5.75 "/>
<path style=" stroke:none;fill-rule:nonzero;fill:rgb(0%,0%,0%);fill-opacity:1;" d="M 5.195312 5.101562 L 2.714844 5.921875 L 2.714844 7.488281 L 5.195312 7.488281 Z M 5.195312 5.101562 "/>
<path style=" stroke:none;fill-rule:nonzero;fill:rgb(0%,0%,0%);fill-opacity:1;" d="M 3.402344 11.644531 C 3.640625 11.644531 3.832031 11.453125 3.832031 11.214844 C 3.832031 10.976562 3.640625 10.785156 3.402344 10.785156 C 3.164062 10.785156 2.972656 10.976562 2.972656 11.214844 C 2.972656 11.453125 3.164062 11.644531 3.402344 11.644531 Z M 3.402344 11.644531 "/>
<path style=" stroke:none;fill-rule:nonzero;fill:rgb(0%,0%,0%);fi<path style=" stroke:none;fill-rule:nonzero;fill:rgb(0%,0%,0%);fill-opacity:1;" d="M 3.402344 12.332031 C 4.019531 12.332031 4.519531 11.835938 4.523438 11.21875 C 4.523438 10.601562 4.027344 10.101562 3.410156 10.097656 C 2.792969 10.09375 2.289062 10.589844 2.285156 11.207031 C 2.285156 11.207031 2.285156 11.210938 2.285156 11.214844 C 2.285156 11.21875 2.285156 11.222656 2.285156 11.226562 C 2.292969 11.839844 2.789062 12.332031 3.402344 12.332031 Z M 3.402344 10.304688 C 3.90625 10.304688 4.3125 10.710938 4.3125 11.214844 C 4.3125 11.71875 3.90625 12.125 3.402344 12.125 C 2.902344 12.125 2.492188 11.71875 2.492188 11.214844 C 2.492188 10.710938 2.902344 10.304688 3.402344 10.304688 Z M 3.402344 10.304688 "/>ll-opacity:1;" d="M 13.285156 7.488281 L 13.285156 5.007812 L 6.777344 5.007812 L 6.777344 7.488281 Z M 13.285156 7.488281 "/>
<path style=" stroke:none;fill-rule:nonzero;fill:rgb(0%,0%,0%);fill-opacity:1;" d="M 12.597656 10.785156 C 12.359375 10.785156 12.167969 10.976562 12.167969 11.214844 C 12.167969 11.453125 12.359375 11.644531 12.597656 11.644531 C 12.835938 11.644531 13.027344 11.453125 13.027344 11.214844 C 13.027344 10.976562 12.835938 10.785156 12.597656 10.785156 Z M 12.597656 10.785156 "/>
<path style=" stroke:none;fill-rule:nonzero;fill:rgb(0%,0%,0%);fill-opacity:1;" d="M 12.597656 10.097656 C 11.980469 10.09375 11.480469 10.59375 11.476562 11.210938 C 11.476562 11.828125 11.972656 12.328125 12.589844 12.332031 C 13.207031 12.335938 13.710938 11.839844 13.714844 11.222656 C 13.714844 11.222656 13.714844 11.21875 13.714844 11.214844 C 13.714844 11.210938 13.714844 11.207031 13.714844 11.203125 C 13.710938 10.589844 13.210938 10.097656 12.597656 10.097656 Z M 12.597656 12.125 C 12.09375 12.125 11.6875 11.714844 11.6875 11.214844 C 11.6875 10.710938 12.09375 10.304688 12.597656 10.304688 C 13.097656 10.304688 13.507812 10.710938 13.507812 11.214844 C 13.507812 11.714844 13.097656 12.125 12.597656 12.125 Z M 12.597656 12.125 "/>
</g>
</svg>
