<?xml version="1.0" encoding="UTF-8"?>
<svg xmlns="http://www.w3.org/2000/svg" xmlns:xlink="http://www.w3.org/1999/xlink" width="16px" height="16px" viewBox="0 0 16 16" version="1.1">
<g id="surface1">
<path style=" stroke:none;fill-rule:evenodd;fill:rgb(27.058824%,33.72549%,34.901961%);fill-opacity:1;" d="M 7.988281 0.234375 C 3.738281 0.234375 0.28125 3.691406 0.28125 7.941406 C 0.28125 9.433594 0.703125 10.871094 1.511719 12.117188 L 0.339844 14.695312 C 0.234375 14.933594 0.273438 15.210938 0.441406 15.410156 C 0.570312 15.5625 0.757812 15.648438 0.953125 15.648438 C 1.011719 15.648438 1.074219 15.640625 1.132812 15.625 L 4.355469 14.738281 C 5.472656 15.332031 6.71875 15.648438 7.988281 15.648438 C 12.238281 15.648438 15.695312 12.191406 15.695312 7.941406 C 15.695312 3.691406 12.238281 0.234375 7.988281 0.234375 Z M 7.988281 14.300781 C 6.863281 14.300781 5.753906 14 4.785156 13.433594 C 4.679688 13.375 4.5625 13.34375 4.445312 13.34375 C 4.386719 13.34375 4.324219 13.351562 4.265625 13.367188 L 2.160156 13.945312 L 2.894531 12.328125 C 2.992188 12.109375 2.96875 11.851562 2.828125 11.65625 C 2.042969 10.566406 1.625 9.285156 1.625 7.941406 C 1.625 4.433594 4.480469 1.578125 7.988281 1.578125 C 11.496094 1.578125 14.347656 4.433594 14.347656 7.941406 C 14.347656 11.449219 11.496094 14.300781 7.988281 14.300781 Z M 7.988281 14.300781 "/>
<path style=" stroke:none;fill-rule:evenodd;fill:rgb(28.627451%,34.901961%,36.078431%);fill-opacity:1;" d="M 10.949219 9.09375 C 10.628906 8.902344 10.207031 8.6875 9.828125 8.839844 C 9.535156 8.960938 9.347656 9.417969 9.160156 9.652344 C 9.0625 9.769531 8.949219 9.789062 8.796875 9.730469 C 7.703125 9.292969 6.863281 8.5625 6.261719 7.554688 C 6.15625 7.398438 6.175781 7.273438 6.300781 7.128906 C 6.480469 6.914062 6.710938 6.671875 6.761719 6.378906 C 6.808594 6.089844 6.675781 5.753906 6.554688 5.496094 C 6.402344 5.164062 6.230469 4.695312 5.902344 4.507812 C 5.597656 4.335938 5.195312 4.433594 4.925781 4.652344 C 4.460938 5.035156 4.234375 5.628906 4.242188 6.21875 C 4.242188 6.386719 4.265625 6.554688 4.304688 6.714844 C 4.398438 7.105469 4.578125 7.46875 4.78125 7.8125 C 4.933594 8.074219 5.097656 8.328125 5.277344 8.570312 C 5.863281 9.367188 6.59375 10.058594 7.4375 10.574219 C 7.855469 10.832031 8.3125 11.058594 8.78125 11.214844 C 9.308594 11.390625 9.777344 11.570312 10.347656 11.460938 C 10.945312 11.347656 11.53125 10.980469 11.769531 10.40625 C 11.839844 10.234375 11.875 10.046875 11.835938 9.867188 C 11.753906 9.496094 11.25 9.273438 10.949219 9.09375 Z M 10.949219 9.09375 "/>
</g>
</svg>
